<?xml version="1.0" encoding="UTF-8"?>
<svg xmlns="http://www.w3.org/2000/svg" xmlns:xlink="http://www.w3.org/1999/xlink" viewBox="0 0 480 480" width="480px" height="480px">
<g id="surface449796">
<path style=" stroke:none;fill-rule:nonzero;fill:rgb(100%,83.92157%,0%);fill-opacity:1;" d="M 6 474 L 6 6 L 474 6 L 474 474 Z M 6 474 "/>
<path style=" stroke:none;fill-rule:nonzero;fill:rgb(0%,0%,0.392157%);fill-opacity:1;" d="M 311.992188 356.3125 C 320.988281 370.921875 330.765625 384.925781 351.476562 384.925781 C 368.867188 384.925781 377.996094 376.277344 377.996094 364.320312 C 377.996094 350.007812 368.558594 344.921875 349.421875 336.589844 L 338.929688 332.117188 C 308.652344 319.273438 288.515625 303.179688 288.515625 269.183594 C 288.515625 237.855469 312.5 214.011719 349.980469 214.011719 C 376.667969 214.011719 395.84375 223.257812 409.675781 247.460938 L 376.992188 268.351562 C 369.804688 255.507812 362.03125 250.453125 349.980469 250.453125 C 337.683594 250.453125 329.894531 258.214844 329.894531 268.351562 C 329.894531 280.886719 337.695312 285.953125 355.699219 293.714844 L 366.191406 298.1875 C 401.875 313.386719 422 328.90625 422 363.800781 C 422 401.394531 392.308594 422 352.449219 422 C 313.464844 422 291.324219 402.433594 279 378.214844 Z M 161.375 357.378906 C 167.953125 369.15625 177.949219 378.214844 192.328125 378.214844 C 206.082031 378.214844 214 372.78125 214 351.65625 L 214 214 L 257.328125 214 L 257.328125 358.3125 C 257.328125 402.082031 231.941406 422 194.863281 422 C 161.363281 422 137.183594 399.300781 127.328125 378.214844 Z M 161.375 357.378906 "/>
</g>
</svg>
