<svg xmlns="http://www.w3.org/2000/svg" width="118" height="102" fill="none"><path fill="#fff" fill-rule="evenodd" d="M115 102a3 3 0 1 1 0-6 3 3 0 0 1 0 6zm-19-3a3 3 0 1 0 6 0 3 3 0 0 0-6 0zm-13 3a3 3 0 1 1 0-6 3 3 0 0 1 0 6zm-19-3a3 3 0 1 0 6 0 3 3 0 0 0-6 0zm-13 3a3 3 0 1 1 0-6 3 3 0 0 1 0 6zm-19-3a3 3 0 1 0 6 0 3 3 0 0 0-6 0zm-13 3a3 3 0 1 1 0-6 3 3 0 0 1 0 6zM0 67a3 3 0 1 0 6 0 3 3 0 0 0-6 0zm3 19a3 3 0 1 1 0-6 3 3 0 0 1 0 6zm0 16a3 3 0 1 1 0-6 3 3 0 0 1 0 6zm0-48a3 3 0 1 1 0-6 3 3 0 0 1 0 6zM0 35a3 3 0 1 0 6 0 3 3 0 0 0-6 0zm3-13a3 3 0 1 1 0-6 3 3 0 0 1 0 6zM0 3a3 3 0 1 0 6 0 3 3 0 0 0-6 0zm16 80a3 3 0 1 0 6 0 3 3 0 0 0-6 0zm3-13a3 3 0 1 1 0-6 3 3 0 0 1 0 6zm-3-19a3 3 0 1 0 6 0 3 3 0 0 0-6 0zm3-13a3 3 0 1 1 0-6 3 3 0 0 1 0 6zm-3-19a3 3 0 1 0 6 0 3 3 0 0 0-6 0zm3-13a3 3 0 1 1 0-6 3 3 0 0 1 0 6zm16 80a3 3 0 1 1 0-6 3 3 0 0 1 0 6zm-3-19a3 3 0 1 0 6 0 3 3 0 0 0-6 0zm3-13a3 3 0 1 1 0-6 3 3 0 0 1 0 6zm-3-19a3 3 0 1 0 6 0 3 3 0 0 0-6 0zm3-13a3 3 0 1 1 0-6 3 3 0 0 1 0 6zM32 3a3 3 0 1 0 6 0 3 3 0 0 0-6 0zm16 80a3 3 0 1 0 6 0 3 3 0 0 0-6 0zm3-13a3 3 0 1 1 0-6 3 3 0 0 1 0 6zm-3-19a3 3 0 1 0 6 0 3 3 0 0 0-6 0zm3-13a3 3 0 1 1 0-6 3 3 0 0 1 0 6zm-3-19a3 3 0 1 0 6 0 3 3 0 0 0-6 0zm3-13a3 3 0 1 1 0-6 3 3 0 0 1 0 6zm16 80a3 3 0 1 1 0-6 3 3 0 0 1 0 6zm-3-19a3 3 0 1 0 6 0 3 3 0 0 0-6 0zm3-13a3 3 0 1 1 0-6 3 3 0 0 1 0 6zm-3-19a3 3 0 1 0 6 0 3 3 0 0 0-6 0zm3-13a3 3 0 1 1 0-6 3 3 0 0 1 0 6zM64 3a3 3 0 1 0 6 0 3 3 0 0 0-6 0zm16 80a3 3 0 1 0 6 0 3 3 0 0 0-6 0zm3-13a3 3 0 1 1 0-6 3 3 0 0 1 0 6zm-3-19a3 3 0 1 0 6 0 3 3 0 0 0-6 0zm3-13a3 3 0 1 1 0-6 3 3 0 0 1 0 6zm-3-19a3 3 0 1 0 6 0 3 3 0 0 0-6 0zm3-13a3 3 0 1 1 0-6 3 3 0 0 1 0 6zm16 80a3 3 0 1 1 0-6 3 3 0 0 1 0 6zm-3-19a3 3 0 1 0 6 0 3 3 0 0 0-6 0zm3-13a3 3 0 1 1 0-6 3 3 0 0 1 0 6zm-3-19a3 3 0 1 0 6 0 3 3 0 0 0-6 0zm3-13a3 3 0 1 1 0-6 3 3 0 0 1 0 6zM96 3a3 3 0 1 0 6 0 3 3 0 0 0-6 0zm16 80a3 3 0 1 0 6 0 3 3 0 0 0-6 0zm3-13a3 3 0 1 1 0-6 3 3 0 0 1 0 6zm-3-19a3 3 0 1 0 6 0 3 3 0 0 0-6 0zm3-13a3 3 0 1 1 0-6 3 3 0 0 1 0 6zm-3-19a3 3 0 1 0 6 0 3 3 0 0 0-6 0zm3-13a3 3 0 1 1 0-6 3 3 0 0 1 0 6z" clip-rule="evenodd" opacity=".1"/></svg>